<?xml version="1.0" encoding="UTF-8"?>
<svg width="349.87" height="349.87" version="1.2" viewBox="0 0 92.57 92.57" xmlns="http://www.w3.org/2000/svg">
 <g transform="translate(-292.29 -99.967)">
  <g transform="translate(131.09 20.741)">
   <g transform="scale(.98684 1.0133)" fill="#181c20" stroke-width="1.3122" aria-label="one">
    <path d="m178.25 138.21q-4.2517 0-7.6635-1.8371-3.4118-1.8372-5.354-5.0915-1.8896-3.3069-1.8896-7.4536t1.8896-7.4011q1.9421-3.2544 5.354-5.0915 3.4118-1.8372 7.6635-1.8372 4.3042 0 7.716 1.8372 3.4118 1.8371 5.3015 5.0915 1.9421 3.2544 1.9421 7.4011t-1.9421 7.4536q-1.8896 3.2544-5.3015 5.0915-3.4118 1.8371-7.716 1.8371zm0-5.6164q3.6218 0 5.9838-2.4145 2.362-2.4145 2.362-6.3513t-2.362-6.3513q-2.362-2.4145-5.9838-2.4145t-5.9838 2.4145q-2.3096 2.4145-2.3096 6.3513t2.3096 6.3513q2.362 2.4145 5.9838 2.4145z"/>
    <path d="m212.95 109.5q5.3015 0 8.5034 3.0969 3.2019 3.0969 3.2019 9.1857v16.062h-6.5612v-15.222q0-3.6743-1.7322-5.5114-1.7322-1.8896-4.934-1.8896-3.6218 0-5.7214 2.2046-2.0996 2.1521-2.0996 6.2463v14.172h-6.5612v-28.03h6.2463v3.6218q1.6272-1.9421 4.0942-2.9394 2.467-0.99731 5.5639-0.99731z"/>
    <path d="m257.15 123.99q0 0.68237-0.10498 1.9421h-21.993q0.57738 3.0969 2.9919 4.934 2.467 1.7846 6.0888 1.7846 4.6191 0 7.611-3.0444l3.5168 4.0417q-1.8896 2.2571-4.7766 3.4118-2.887 1.1548-6.5088 1.1548-4.6191 0-8.1359-1.8371-3.5168-1.8372-5.459-5.0915-1.8896-3.3069-1.8896-7.4536 0-4.0942 1.8371-7.3486 1.8896-3.3069 5.1965-5.144 3.3069-1.8372 7.4536-1.8372 4.0942 0 7.2961 1.8372 3.2544 1.7846 5.039 5.0915 1.8371 3.2544 1.8371 7.5585zm-14.172-9.2382q-3.1494 0-5.354 1.8896-2.1521 1.8371-2.6245 4.934h15.904q-0.41991-3.0444-2.572-4.934-2.1521-1.8896-5.354-1.8896z"/>
   </g>
  </g>
 </g>
</svg>
