<svg width="349.87" height="349.87" viewBox="0 0 92.57 92.57" xmlns="http://www.w3.org/2000/svg"><g fill="#181c20" stroke-width="1.312" aria-label="one"><path d="M14.704 60.822q-4.196 0-7.562-1.861-3.367-1.862-5.284-5.16-1.865-3.35-1.865-7.552t1.865-7.5q1.917-3.298 5.284-5.159 3.366-1.862 7.562-1.862 4.248 0 7.615 1.862 3.367 1.861 5.231 5.16 1.917 3.297 1.917 7.499T27.55 53.8q-1.864 3.298-5.231 5.16-3.367 1.861-7.615 1.861zm0-5.69q3.574 0 5.905-2.448 2.331-2.446 2.331-6.435t-2.33-6.436q-2.332-2.447-5.906-2.447T8.8 39.813Q6.52 42.26 6.52 46.249t2.28 6.435q2.33 2.447 5.904 2.447zM48.948 31.73q5.231 0 8.391 3.138 3.16 3.139 3.16 9.308v16.276h-6.475V45.027q0-3.723-1.71-5.584-1.709-1.915-4.868-1.915-3.575 0-5.647 2.234-2.072 2.18-2.072 6.33v14.36h-6.474V32.049h6.164v3.67q1.605-1.968 4.04-2.978 2.435-1.011 5.49-1.011zM92.566 46.413q0 .692-.104 1.968H70.76q.57 3.138 2.952 5 2.435 1.808 6.009 1.808 4.558 0 7.51-3.085l3.471 4.096q-1.864 2.287-4.713 3.457-2.85 1.17-6.424 1.17-4.558 0-8.028-1.862-3.47-1.861-5.388-5.159-1.864-3.35-1.864-7.553 0-4.148 1.813-7.446 1.864-3.35 5.128-5.212 3.263-1.862 7.355-1.862 4.04 0 7.2 1.862 3.212 1.808 4.973 5.159 1.813 3.298 1.813 7.659zM78.58 37.052q-3.108 0-5.283 1.915-2.124 1.861-2.59 5h15.695q-.415-3.086-2.539-5-2.123-1.915-5.283-1.915z"/></g></svg>